<mxfile host="app.diagrams.net" modified="2022-07-10T14:04:34.160Z" agent="5.0 (X11; Linux x86_64) AppleWebKit/537.36 (KHTML, like Gecko) Chrome/102.0.5005.149 Safari/537.36" etag="dQXHA9LI3__YvmrhDeWm" version="20.0.4" type="github">
  <diagram id="mzm1uCLJ-yECZfceGPLK" name="Page-1">
    <mxGraphModel dx="1396" dy="1220" grid="1" gridSize="10" guides="1" tooltips="1" connect="1" arrows="1" fold="1" page="1" pageScale="1" pageWidth="850" pageHeight="1100" math="0" shadow="0">
      <root>
        <mxCell id="0" />
        <mxCell id="1" parent="0" />
        <mxCell id="vau9nw-gVih0N3COjvcs-58" value="VictoriaMetrics Cluster" style="fillColor=#f8cecc;strokeColor=#b85450;dashed=1;verticalAlign=top;fontStyle=5;fontSize=18;labelBackgroundColor=none;labelBorderColor=none;shadow=1;sketch=1;glass=1;rounded=1;" vertex="1" parent="1">
          <mxGeometry x="100" y="410" width="1170" height="1100" as="geometry" />
        </mxCell>
        <mxCell id="vau9nw-gVih0N3COjvcs-59" value="Availability zone A" style="sketch=0;outlineConnect=0;gradientColor=none;html=1;whiteSpace=wrap;fontSize=12;fontStyle=0;shape=mxgraph.aws4.group;grIcon=mxgraph.aws4.group_availability_zone;strokeColor=#545B64;fillColor=none;verticalAlign=top;align=left;spacingLeft=30;fontColor=#545B64;dashed=1;" vertex="1" parent="1">
          <mxGeometry x="180" y="460" width="510" height="1040" as="geometry" />
        </mxCell>
        <mxCell id="vau9nw-gVih0N3COjvcs-60" value="Availability zone B" style="sketch=0;outlineConnect=0;gradientColor=none;html=1;whiteSpace=wrap;fontSize=12;fontStyle=0;shape=mxgraph.aws4.group;grIcon=mxgraph.aws4.group_availability_zone;strokeColor=#545B64;fillColor=none;verticalAlign=top;align=left;spacingLeft=30;fontColor=#545B64;dashed=1;" vertex="1" parent="1">
          <mxGeometry x="710" y="460" width="460" height="1040" as="geometry" />
        </mxCell>
        <mxCell id="vau9nw-gVih0N3COjvcs-61" value="&lt;span id=&quot;docs-internal-guid-602cd3f7-7fff-a77b-c48b-a0fe1a14de39&quot;&gt;&lt;span style=&quot;font-family: Arial; background-color: transparent; font-weight: 700; font-variant-numeric: normal; font-variant-east-asian: normal; text-decoration-line: underline; text-decoration-skip-ink: none; vertical-align: baseline;&quot;&gt;&lt;font style=&quot;font-size: 20px;&quot;&gt;A multi-AZ VictoriaMetrics that achieves high availability, disaster recovery, performance, redundancy, and cost savings&lt;/font&gt;&lt;/span&gt;&lt;/span&gt;" style="text;html=1;align=center;verticalAlign=middle;resizable=0;points=[];autosize=1;strokeColor=none;fillColor=none;" vertex="1" parent="1">
          <mxGeometry x="60" y="100" width="1150" height="20" as="geometry" />
        </mxCell>
        <mxCell id="vau9nw-gVih0N3COjvcs-62" style="edgeStyle=orthogonalEdgeStyle;rounded=0;orthogonalLoop=1;jettySize=auto;html=1;entryX=0.5;entryY=0;entryDx=0;entryDy=0;strokeWidth=4;" edge="1" parent="1" source="vau9nw-gVih0N3COjvcs-63" target="vau9nw-gVih0N3COjvcs-64">
          <mxGeometry relative="1" as="geometry" />
        </mxCell>
        <mxCell id="vau9nw-gVih0N3COjvcs-63" value="&lt;font style=&quot;font-size: 17px;&quot;&gt;&lt;b style=&quot;&quot;&gt;&lt;u&gt;&lt;font style=&quot;font-size: 17px;&quot;&gt;VMInsert&lt;/font&gt;&lt;/u&gt;&lt;/b&gt;&lt;span style=&quot;&quot;&gt; - Stateless component&lt;/span&gt;&lt;br&gt;&lt;br&gt;&lt;span style=&quot;&quot;&gt;accepts the ingested data and spreads it among storage nodes&lt;/span&gt;&lt;br&gt;&lt;span style=&quot;&quot;&gt;&lt;br&gt;Spot nodes&lt;/span&gt;&lt;br&gt;&lt;br&gt;&lt;span style=&quot;&quot;&gt;HPA&lt;/span&gt;&lt;/font&gt;" style="whiteSpace=wrap;html=1;fillColor=#FFFF33;rounded=1;shadow=1;glass=1;sketch=1;" vertex="1" parent="1">
          <mxGeometry x="230.5" y="526" width="399.5" height="180" as="geometry" />
        </mxCell>
        <mxCell id="vau9nw-gVih0N3COjvcs-64" value="&lt;font style=&quot;font-size: 17px;&quot;&gt;&lt;b style=&quot;&quot;&gt;&lt;u style=&quot;&quot;&gt;VMStorage&lt;/u&gt;&lt;/b&gt;&amp;nbsp;- Stateful component&lt;br style=&quot;&quot;&gt;&lt;br style=&quot;&quot;&gt;&lt;font style=&quot;font-size: 17px;&quot;&gt;stores the raw data and returns the queried data on the given time range for the given label filters.&lt;/font&gt;&lt;br style=&quot;&quot;&gt;&lt;br&gt;On-demand nodes&lt;br style=&quot;&quot;&gt;&lt;br style=&quot;&quot;&gt;VPA&lt;/font&gt;" style="whiteSpace=wrap;html=1;fillColor=#FFFF33;rounded=1;shadow=1;glass=1;sketch=1;" vertex="1" parent="1">
          <mxGeometry x="230.5" y="780" width="399.5" height="195" as="geometry" />
        </mxCell>
        <mxCell id="vau9nw-gVih0N3COjvcs-65" style="edgeStyle=orthogonalEdgeStyle;rounded=0;orthogonalLoop=1;jettySize=auto;html=1;entryX=0.5;entryY=1;entryDx=0;entryDy=0;strokeWidth=4;" edge="1" parent="1" source="vau9nw-gVih0N3COjvcs-66" target="vau9nw-gVih0N3COjvcs-64">
          <mxGeometry relative="1" as="geometry" />
        </mxCell>
        <mxCell id="vau9nw-gVih0N3COjvcs-66" value="&lt;font style=&quot;font-size: 17px;&quot;&gt;&lt;b style=&quot;&quot;&gt;&lt;u style=&quot;&quot;&gt;VMSelect&lt;/u&gt;&lt;/b&gt;&amp;nbsp;- Stateless component&lt;br style=&quot;&quot;&gt;&lt;br style=&quot;&quot;&gt;&amp;nbsp;performs incoming queries by fetching the needed data from all the configured storage nodes&lt;br&gt;&lt;br style=&quot;&quot;&gt;Spot nodes&lt;br style=&quot;&quot;&gt;&lt;br style=&quot;&quot;&gt;HPA&lt;/font&gt;" style="whiteSpace=wrap;html=1;fillColor=#FFFF33;rounded=1;shadow=1;glass=1;sketch=1;" vertex="1" parent="1">
          <mxGeometry x="230.5" y="1050" width="399.5" height="200" as="geometry" />
        </mxCell>
        <mxCell id="vau9nw-gVih0N3COjvcs-72" style="edgeStyle=orthogonalEdgeStyle;rounded=0;orthogonalLoop=1;jettySize=auto;html=1;fontSize=15;strokeWidth=4;" edge="1" parent="1" source="vau9nw-gVih0N3COjvcs-73" target="vau9nw-gVih0N3COjvcs-104">
          <mxGeometry relative="1" as="geometry">
            <Array as="points">
              <mxPoint x="910" y="1567" />
              <mxPoint x="910" y="1567" />
            </Array>
          </mxGeometry>
        </mxCell>
        <mxCell id="vau9nw-gVih0N3COjvcs-73" value="Users" style="sketch=0;outlineConnect=0;fontColor=#232F3E;gradientColor=none;strokeColor=#232F3E;fillColor=#ffffff;dashed=0;verticalLabelPosition=bottom;verticalAlign=top;align=center;html=1;fontSize=12;fontStyle=0;aspect=fixed;shape=mxgraph.aws4.resourceIcon;resIcon=mxgraph.aws4.users;rounded=1;shadow=1;glass=1;" vertex="1" parent="1">
          <mxGeometry x="1040" y="1519.66" width="95.34" height="95.34" as="geometry" />
        </mxCell>
        <mxCell id="vau9nw-gVih0N3COjvcs-152" style="edgeStyle=orthogonalEdgeStyle;rounded=0;orthogonalLoop=1;jettySize=auto;html=1;strokeWidth=4;" edge="1" parent="1" source="vau9nw-gVih0N3COjvcs-75" target="vau9nw-gVih0N3COjvcs-129">
          <mxGeometry relative="1" as="geometry" />
        </mxCell>
        <mxCell id="vau9nw-gVih0N3COjvcs-75" value="" style="sketch=0;outlineConnect=0;fontColor=#232F3E;gradientColor=none;fillColor=#4D27AA;strokeColor=none;dashed=0;verticalLabelPosition=bottom;verticalAlign=top;align=center;html=1;fontSize=12;fontStyle=0;aspect=fixed;pointerEvents=1;shape=mxgraph.aws4.application_load_balancer;rounded=1;shadow=1;glass=1;" vertex="1" parent="1">
          <mxGeometry x="916" y="420" width="78" height="78" as="geometry" />
        </mxCell>
        <mxCell id="vau9nw-gVih0N3COjvcs-153" style="edgeStyle=orthogonalEdgeStyle;rounded=0;orthogonalLoop=1;jettySize=auto;html=1;strokeWidth=4;" edge="1" parent="1" source="vau9nw-gVih0N3COjvcs-77" target="vau9nw-gVih0N3COjvcs-63">
          <mxGeometry relative="1" as="geometry">
            <Array as="points">
              <mxPoint x="430" y="510" />
              <mxPoint x="430" y="510" />
            </Array>
          </mxGeometry>
        </mxCell>
        <mxCell id="vau9nw-gVih0N3COjvcs-77" value="" style="sketch=0;outlineConnect=0;fontColor=#232F3E;gradientColor=none;fillColor=#4D27AA;strokeColor=none;dashed=0;verticalLabelPosition=bottom;verticalAlign=top;align=center;html=1;fontSize=12;fontStyle=0;aspect=fixed;pointerEvents=1;shape=mxgraph.aws4.application_load_balancer;rounded=1;shadow=1;glass=1;" vertex="1" parent="1">
          <mxGeometry x="390.5" y="420" width="78" height="78" as="geometry" />
        </mxCell>
        <mxCell id="vau9nw-gVih0N3COjvcs-82" value="" style="sketch=0;html=1;dashed=0;whitespace=wrap;fillColor=#2875E2;strokeColor=#ffffff;points=[[0.005,0.63,0],[0.1,0.2,0],[0.9,0.2,0],[0.5,0,0],[0.995,0.63,0],[0.72,0.99,0],[0.5,1,0],[0.28,0.99,0]];shape=mxgraph.kubernetes.icon;prIcon=hpa;rounded=1;shadow=0;glass=1;" vertex="1" parent="1">
          <mxGeometry x="460" y="1180" width="80" height="64" as="geometry" />
        </mxCell>
        <mxCell id="vau9nw-gVih0N3COjvcs-86" value="" style="sketch=0;points=[[0,0,0],[0.25,0,0],[0.5,0,0],[0.75,0,0],[1,0,0],[0,1,0],[0.25,1,0],[0.5,1,0],[0.75,1,0],[1,1,0],[0,0.25,0],[0,0.5,0],[0,0.75,0],[1,0.25,0],[1,0.5,0],[1,0.75,0]];points=[[0,0,0],[0.25,0,0],[0.5,0,0],[0.75,0,0],[1,0,0],[0,1,0],[0.25,1,0],[0.5,1,0],[0.75,1,0],[1,1,0],[0,0.25,0],[0,0.5,0],[0,0.75,0],[1,0.25,0],[1,0.5,0],[1,0.75,0]];outlineConnect=0;fontColor=#232F3E;gradientColor=#F34482;gradientDirection=north;fillColor=#BC1356;strokeColor=#ffffff;dashed=0;verticalLabelPosition=bottom;verticalAlign=top;align=center;html=1;fontSize=12;fontStyle=0;aspect=fixed;shape=mxgraph.aws4.resourceIcon;resIcon=mxgraph.aws4.autoscaling;rounded=1;shadow=0;glass=1;" vertex="1" parent="1">
          <mxGeometry x="260" y="890" width="78.67" height="78.67" as="geometry" />
        </mxCell>
        <mxCell id="vau9nw-gVih0N3COjvcs-90" style="edgeStyle=orthogonalEdgeStyle;rounded=0;orthogonalLoop=1;jettySize=auto;html=1;strokeWidth=4;" edge="1" parent="1" source="vau9nw-gVih0N3COjvcs-91" target="vau9nw-gVih0N3COjvcs-77">
          <mxGeometry relative="1" as="geometry">
            <Array as="points">
              <mxPoint x="290" y="410" />
              <mxPoint x="430" y="410" />
            </Array>
          </mxGeometry>
        </mxCell>
        <mxCell id="vau9nw-gVih0N3COjvcs-91" value="&lt;font style=&quot;font-size: 17px;&quot;&gt;&lt;br&gt;&lt;br&gt;&lt;br&gt;&lt;br&gt;Workload 1&lt;br&gt;&lt;b&gt;&lt;u&gt;VMAgent&amp;nbsp;&lt;/u&gt;&lt;/b&gt;&lt;/font&gt;" style="shape=cube;whiteSpace=wrap;html=1;boundedLbl=1;backgroundOutline=1;darkOpacity=0.05;darkOpacity2=0.1;rounded=1;shadow=0;glass=1;sketch=1;fillColor=#FFFF33;" vertex="1" parent="1">
          <mxGeometry x="170" y="190" width="260" height="160" as="geometry" />
        </mxCell>
        <mxCell id="vau9nw-gVih0N3COjvcs-92" value="" style="aspect=fixed;html=1;points=[];align=center;image;fontSize=12;image=img/lib/azure2/containers/Kubernetes_Services.svg;rounded=1;shadow=0;glass=1;sketch=1;fillColor=#FFFF33;" vertex="1" parent="1">
          <mxGeometry x="267.99999999999994" y="220" width="90.67" height="80" as="geometry" />
        </mxCell>
        <mxCell id="vau9nw-gVih0N3COjvcs-93" style="edgeStyle=orthogonalEdgeStyle;rounded=0;orthogonalLoop=1;jettySize=auto;html=1;strokeWidth=4;" edge="1" parent="1" source="vau9nw-gVih0N3COjvcs-95" target="vau9nw-gVih0N3COjvcs-75">
          <mxGeometry relative="1" as="geometry">
            <Array as="points">
              <mxPoint x="670" y="410" />
              <mxPoint x="960" y="410" />
            </Array>
          </mxGeometry>
        </mxCell>
        <mxCell id="vau9nw-gVih0N3COjvcs-94" style="edgeStyle=orthogonalEdgeStyle;rounded=0;orthogonalLoop=1;jettySize=auto;html=1;strokeWidth=4;" edge="1" parent="1" source="vau9nw-gVih0N3COjvcs-95" target="vau9nw-gVih0N3COjvcs-77">
          <mxGeometry relative="1" as="geometry">
            <Array as="points">
              <mxPoint x="670" y="410" />
              <mxPoint x="430" y="410" />
            </Array>
          </mxGeometry>
        </mxCell>
        <mxCell id="vau9nw-gVih0N3COjvcs-95" value="&lt;font style=&quot;font-size: 17px;&quot;&gt;&lt;br style=&quot;&quot;&gt;&lt;br style=&quot;&quot;&gt;&lt;br style=&quot;&quot;&gt;&lt;br&gt;Workload 2&lt;br style=&quot;&quot;&gt;&lt;b&gt;&lt;u&gt;VMAgent&lt;/u&gt;&lt;/b&gt;&amp;nbsp;&lt;/font&gt;" style="shape=cube;whiteSpace=wrap;html=1;boundedLbl=1;backgroundOutline=1;darkOpacity=0.05;darkOpacity2=0.1;rounded=1;shadow=0;glass=1;sketch=1;fillColor=#FFFF33;" vertex="1" parent="1">
          <mxGeometry x="530" y="190" width="260" height="160" as="geometry" />
        </mxCell>
        <mxCell id="vau9nw-gVih0N3COjvcs-96" style="edgeStyle=orthogonalEdgeStyle;rounded=0;orthogonalLoop=1;jettySize=auto;html=1;strokeWidth=4;" edge="1" parent="1" source="vau9nw-gVih0N3COjvcs-97" target="vau9nw-gVih0N3COjvcs-75">
          <mxGeometry relative="1" as="geometry">
            <Array as="points">
              <mxPoint x="1000" y="410" />
              <mxPoint x="960" y="410" />
            </Array>
          </mxGeometry>
        </mxCell>
        <mxCell id="vau9nw-gVih0N3COjvcs-97" value="&lt;font style=&quot;font-size: 17px;&quot;&gt;&lt;br style=&quot;&quot;&gt;&lt;br style=&quot;&quot;&gt;&lt;br style=&quot;&quot;&gt;&lt;br&gt;Workload 3&lt;br style=&quot;&quot;&gt;&lt;b&gt;&lt;u&gt;VMAgent&lt;/u&gt;&lt;/b&gt;&amp;nbsp;&lt;/font&gt;" style="shape=cube;whiteSpace=wrap;html=1;boundedLbl=1;backgroundOutline=1;darkOpacity=0.05;darkOpacity2=0.1;rounded=1;shadow=0;glass=1;sketch=1;fillColor=#FFFF33;" vertex="1" parent="1">
          <mxGeometry x="870" y="190" width="260" height="160" as="geometry" />
        </mxCell>
        <mxCell id="vau9nw-gVih0N3COjvcs-98" value="" style="aspect=fixed;html=1;points=[];align=center;image;fontSize=12;image=img/lib/azure2/containers/Kubernetes_Services.svg;rounded=1;shadow=0;glass=1;sketch=1;fillColor=#FFFF33;" vertex="1" parent="1">
          <mxGeometry x="624.33" y="220" width="90.67" height="80" as="geometry" />
        </mxCell>
        <mxCell id="vau9nw-gVih0N3COjvcs-99" value="" style="aspect=fixed;html=1;points=[];align=center;image;fontSize=12;image=img/lib/azure2/containers/Kubernetes_Services.svg;rounded=1;shadow=0;glass=1;sketch=1;fillColor=#FFFF33;" vertex="1" parent="1">
          <mxGeometry x="964.6700000000001" y="220" width="90.67" height="80" as="geometry" />
        </mxCell>
        <mxCell id="vau9nw-gVih0N3COjvcs-100" value="&lt;font style=&quot;font-size: 16px;&quot;&gt;&lt;br&gt;&lt;br&gt;&lt;br&gt;&lt;br&gt;&lt;font style=&quot;font-size: 16px;&quot;&gt;VMalert&lt;/font&gt;&lt;/font&gt;" style="rounded=0;whiteSpace=wrap;html=1;shadow=0;glass=1;sketch=1;fillColor=#FFFF33;" vertex="1" parent="1">
          <mxGeometry x="590" y="1290" width="200" height="110" as="geometry" />
        </mxCell>
        <mxCell id="vau9nw-gVih0N3COjvcs-101" style="edgeStyle=orthogonalEdgeStyle;rounded=0;orthogonalLoop=1;jettySize=auto;html=1;exitX=0;exitY=0.5;exitDx=0;exitDy=0;fontSize=16;strokeWidth=4;" edge="1" parent="1" source="vau9nw-gVih0N3COjvcs-102" target="vau9nw-gVih0N3COjvcs-112">
          <mxGeometry relative="1" as="geometry">
            <Array as="points">
              <mxPoint x="590" y="1460" />
              <mxPoint x="476" y="1460" />
            </Array>
          </mxGeometry>
        </mxCell>
        <mxCell id="vau9nw-gVih0N3COjvcs-102" value="&lt;font style=&quot;font-size: 16px;&quot;&gt;&lt;br&gt;&lt;br&gt;&lt;br&gt;AlertManager cluster&lt;/font&gt;" style="rounded=0;whiteSpace=wrap;html=1;shadow=0;glass=1;sketch=1;fillColor=#FFFF33;" vertex="1" parent="1">
          <mxGeometry x="590" y="1400" width="200" height="110" as="geometry" />
        </mxCell>
        <mxCell id="vau9nw-gVih0N3COjvcs-103" style="edgeStyle=orthogonalEdgeStyle;rounded=0;orthogonalLoop=1;jettySize=auto;html=1;entryX=1;entryY=0.25;entryDx=0;entryDy=0;strokeWidth=4;" edge="1" parent="1" source="vau9nw-gVih0N3COjvcs-104" target="vau9nw-gVih0N3COjvcs-112">
          <mxGeometry relative="1" as="geometry">
            <Array as="points">
              <mxPoint x="570" y="1555" />
              <mxPoint x="570" y="1555" />
            </Array>
          </mxGeometry>
        </mxCell>
        <mxCell id="vau9nw-gVih0N3COjvcs-104" value="&lt;font style=&quot;font-size: 16px;&quot;&gt;&lt;br&gt;&lt;br&gt;&lt;br&gt;&lt;br&gt;Grafana&lt;/font&gt;" style="rounded=0;whiteSpace=wrap;html=1;shadow=0;glass=1;sketch=1;fillColor=#FFFF33;" vertex="1" parent="1">
          <mxGeometry x="590" y="1505" width="200" height="110" as="geometry" />
        </mxCell>
        <mxCell id="vau9nw-gVih0N3COjvcs-105" value="" style="sketch=0;outlineConnect=0;fontColor=#232F3E;gradientColor=none;strokeColor=#232F3E;fillColor=#ffffff;dashed=0;verticalLabelPosition=bottom;verticalAlign=top;align=center;html=1;fontSize=12;fontStyle=0;aspect=fixed;shape=mxgraph.aws4.resourceIcon;resIcon=mxgraph.aws4.container_1;rounded=1;shadow=0;glass=1;" vertex="1" parent="1">
          <mxGeometry x="605" y="1300" width="60" height="60" as="geometry" />
        </mxCell>
        <mxCell id="vau9nw-gVih0N3COjvcs-106" value="" style="sketch=0;outlineConnect=0;fontColor=#232F3E;gradientColor=none;strokeColor=#232F3E;fillColor=#ffffff;dashed=0;verticalLabelPosition=bottom;verticalAlign=top;align=center;html=1;fontSize=12;fontStyle=0;aspect=fixed;shape=mxgraph.aws4.resourceIcon;resIcon=mxgraph.aws4.container_1;rounded=1;shadow=0;glass=1;" vertex="1" parent="1">
          <mxGeometry x="715" y="1300" width="60" height="60" as="geometry" />
        </mxCell>
        <mxCell id="vau9nw-gVih0N3COjvcs-107" value="" style="sketch=0;outlineConnect=0;fontColor=#232F3E;gradientColor=none;strokeColor=#232F3E;fillColor=#ffffff;dashed=0;verticalLabelPosition=bottom;verticalAlign=top;align=center;html=1;fontSize=12;fontStyle=0;aspect=fixed;shape=mxgraph.aws4.resourceIcon;resIcon=mxgraph.aws4.container_1;rounded=1;shadow=0;glass=1;" vertex="1" parent="1">
          <mxGeometry x="605" y="1410" width="60" height="60" as="geometry" />
        </mxCell>
        <mxCell id="vau9nw-gVih0N3COjvcs-108" value="" style="sketch=0;outlineConnect=0;fontColor=#232F3E;gradientColor=none;strokeColor=#232F3E;fillColor=#ffffff;dashed=0;verticalLabelPosition=bottom;verticalAlign=top;align=center;html=1;fontSize=12;fontStyle=0;aspect=fixed;shape=mxgraph.aws4.resourceIcon;resIcon=mxgraph.aws4.container_1;rounded=1;shadow=0;glass=1;" vertex="1" parent="1">
          <mxGeometry x="715" y="1410" width="60" height="60" as="geometry" />
        </mxCell>
        <mxCell id="vau9nw-gVih0N3COjvcs-110" style="edgeStyle=orthogonalEdgeStyle;rounded=0;orthogonalLoop=1;jettySize=auto;html=1;exitX=0.5;exitY=0;exitDx=0;exitDy=0;exitPerimeter=0;strokeWidth=4;" edge="1" parent="1" source="vau9nw-gVih0N3COjvcs-111" target="vau9nw-gVih0N3COjvcs-66">
          <mxGeometry relative="1" as="geometry">
            <Array as="points">
              <mxPoint x="690" y="1520" />
              <mxPoint x="430" y="1520" />
            </Array>
          </mxGeometry>
        </mxCell>
        <mxCell id="vau9nw-gVih0N3COjvcs-150" style="edgeStyle=orthogonalEdgeStyle;rounded=0;orthogonalLoop=1;jettySize=auto;html=1;entryX=0.5;entryY=1;entryDx=0;entryDy=0;strokeWidth=4;" edge="1" parent="1" source="vau9nw-gVih0N3COjvcs-111" target="vau9nw-gVih0N3COjvcs-144">
          <mxGeometry relative="1" as="geometry">
            <Array as="points">
              <mxPoint x="690" y="1520" />
              <mxPoint x="960" y="1520" />
            </Array>
          </mxGeometry>
        </mxCell>
        <mxCell id="vau9nw-gVih0N3COjvcs-111" value="" style="sketch=0;pointerEvents=1;shadow=0;dashed=0;html=1;strokeColor=none;labelPosition=center;verticalLabelPosition=bottom;verticalAlign=top;align=center;fillColor=#505050;shape=mxgraph.mscae.intune.dashboard;rounded=1;glass=1;fontSize=15;" vertex="1" parent="1">
          <mxGeometry x="665" y="1540" width="50" height="40" as="geometry" />
        </mxCell>
        <mxCell id="vau9nw-gVih0N3COjvcs-112" value="" style="shape=image;html=1;verticalAlign=top;verticalLabelPosition=bottom;labelBackgroundColor=#ffffff;imageAspect=0;aspect=fixed;image=https://cdn2.iconfinder.com/data/icons/social-media-2285/512/1_Slack_colored_svg-128.png;rounded=1;shadow=0;glass=1;sketch=1;fontSize=15;fillColor=#FFFF33;" vertex="1" parent="1">
          <mxGeometry x="446.01000000000005" y="1540" width="59.67" height="59.67" as="geometry" />
        </mxCell>
        <mxCell id="vau9nw-gVih0N3COjvcs-113" value="" style="shape=image;html=1;verticalAlign=top;verticalLabelPosition=bottom;labelBackgroundColor=#ffffff;imageAspect=0;aspect=fixed;image=https://cdn2.iconfinder.com/data/icons/80-s-stuffs-outline/92/Asset_9-128.png;rounded=1;shadow=0;glass=1;sketch=1;fontSize=16;fillColor=#FFFF33;" vertex="1" parent="1">
          <mxGeometry x="358.66999999999996" y="1516.33" width="87.34" height="87.34" as="geometry" />
        </mxCell>
        <mxCell id="vau9nw-gVih0N3COjvcs-114" value="" style="shape=message;html=1;whiteSpace=wrap;html=1;outlineConnect=0;rounded=1;shadow=0;glass=1;sketch=1;fontSize=16;fillColor=#FFFF33;" vertex="1" parent="1">
          <mxGeometry x="298.67" y="1549.83" width="60" height="40" as="geometry" />
        </mxCell>
        <mxCell id="vau9nw-gVih0N3COjvcs-118" value="" style="sketch=0;html=1;dashed=0;whitespace=wrap;fillColor=#2875E2;strokeColor=#ffffff;points=[[0.005,0.63,0],[0.1,0.2,0],[0.9,0.2,0],[0.5,0,0],[0.995,0.63,0],[0.72,0.99,0],[0.5,1,0],[0.28,0.99,0]];shape=mxgraph.kubernetes.icon;prIcon=hpa;rounded=1;shadow=0;glass=1;" vertex="1" parent="1">
          <mxGeometry x="544.33" y="1180" width="80" height="64" as="geometry" />
        </mxCell>
        <mxCell id="vau9nw-gVih0N3COjvcs-119" value="" style="sketch=0;html=1;dashed=0;whitespace=wrap;fillColor=#2875E2;strokeColor=#ffffff;points=[[0.005,0.63,0],[0.1,0.2,0],[0.9,0.2,0],[0.5,0,0],[0.995,0.63,0],[0.72,0.99,0],[0.5,1,0],[0.28,0.99,0]];shape=mxgraph.kubernetes.icon;prIcon=hpa;rounded=1;shadow=0;glass=1;" vertex="1" parent="1">
          <mxGeometry x="316" y="1180" width="80" height="64" as="geometry" />
        </mxCell>
        <mxCell id="vau9nw-gVih0N3COjvcs-120" value="" style="sketch=0;html=1;dashed=0;whitespace=wrap;fillColor=#2875E2;strokeColor=#ffffff;points=[[0.005,0.63,0],[0.1,0.2,0],[0.9,0.2,0],[0.5,0,0],[0.995,0.63,0],[0.72,0.99,0],[0.5,1,0],[0.28,0.99,0]];shape=mxgraph.kubernetes.icon;prIcon=hpa;rounded=1;shadow=0;glass=1;" vertex="1" parent="1">
          <mxGeometry x="236" y="1180" width="80" height="64" as="geometry" />
        </mxCell>
        <mxCell id="vau9nw-gVih0N3COjvcs-121" value="" style="sketch=0;points=[[0,0,0],[0.25,0,0],[0.5,0,0],[0.75,0,0],[1,0,0],[0,1,0],[0.25,1,0],[0.5,1,0],[0.75,1,0],[1,1,0],[0,0.25,0],[0,0.5,0],[0,0.75,0],[1,0.25,0],[1,0.5,0],[1,0.75,0]];points=[[0,0,0],[0.25,0,0],[0.5,0,0],[0.75,0,0],[1,0,0],[0,1,0],[0.25,1,0],[0.5,1,0],[0.75,1,0],[1,1,0],[0,0.25,0],[0,0.5,0],[0,0.75,0],[1,0.25,0],[1,0.5,0],[1,0.75,0]];outlineConnect=0;fontColor=#232F3E;gradientColor=#F34482;gradientDirection=north;fillColor=#BC1356;strokeColor=#ffffff;dashed=0;verticalLabelPosition=bottom;verticalAlign=top;align=center;html=1;fontSize=12;fontStyle=0;aspect=fixed;shape=mxgraph.aws4.resourceIcon;resIcon=mxgraph.aws4.autoscaling;rounded=1;shadow=0;glass=1;" vertex="1" parent="1">
          <mxGeometry x="526.3299999999999" y="890" width="78.67" height="78.67" as="geometry" />
        </mxCell>
        <mxCell id="vau9nw-gVih0N3COjvcs-122" value="" style="sketch=0;html=1;dashed=0;whitespace=wrap;fillColor=#2875E2;strokeColor=#ffffff;points=[[0.005,0.63,0],[0.1,0.2,0],[0.9,0.2,0],[0.5,0,0],[0.995,0.63,0],[0.72,0.99,0],[0.5,1,0],[0.28,0.99,0]];shape=mxgraph.kubernetes.icon;prIcon=hpa;rounded=1;shadow=0;glass=1;" vertex="1" parent="1">
          <mxGeometry x="230.5" y="640" width="80" height="64" as="geometry" />
        </mxCell>
        <mxCell id="vau9nw-gVih0N3COjvcs-124" value="" style="sketch=0;html=1;dashed=0;whitespace=wrap;fillColor=#2875E2;strokeColor=#ffffff;points=[[0.005,0.63,0],[0.1,0.2,0],[0.9,0.2,0],[0.5,0,0],[0.995,0.63,0],[0.72,0.99,0],[0.5,1,0],[0.28,0.99,0]];shape=mxgraph.kubernetes.icon;prIcon=hpa;rounded=1;shadow=0;glass=1;" vertex="1" parent="1">
          <mxGeometry x="468.5" y="640" width="80" height="64" as="geometry" />
        </mxCell>
        <mxCell id="vau9nw-gVih0N3COjvcs-125" value="" style="sketch=0;html=1;dashed=0;whitespace=wrap;fillColor=#2875E2;strokeColor=#ffffff;points=[[0.005,0.63,0],[0.1,0.2,0],[0.9,0.2,0],[0.5,0,0],[0.995,0.63,0],[0.72,0.99,0],[0.5,1,0],[0.28,0.99,0]];shape=mxgraph.kubernetes.icon;prIcon=hpa;rounded=1;shadow=0;glass=1;" vertex="1" parent="1">
          <mxGeometry x="544.33" y="640" width="80" height="64" as="geometry" />
        </mxCell>
        <mxCell id="vau9nw-gVih0N3COjvcs-126" value="" style="sketch=0;html=1;dashed=0;whitespace=wrap;fillColor=#2875E2;strokeColor=#ffffff;points=[[0.005,0.63,0],[0.1,0.2,0],[0.9,0.2,0],[0.5,0,0],[0.995,0.63,0],[0.72,0.99,0],[0.5,1,0],[0.28,0.99,0]];shape=mxgraph.kubernetes.icon;prIcon=hpa;rounded=1;shadow=0;glass=1;" vertex="1" parent="1">
          <mxGeometry x="310.5" y="640" width="80" height="64" as="geometry" />
        </mxCell>
        <mxCell id="vau9nw-gVih0N3COjvcs-143" style="edgeStyle=orthogonalEdgeStyle;rounded=0;orthogonalLoop=1;jettySize=auto;html=1;strokeWidth=4;" edge="1" parent="1" source="vau9nw-gVih0N3COjvcs-129" target="vau9nw-gVih0N3COjvcs-139">
          <mxGeometry relative="1" as="geometry">
            <Array as="points">
              <mxPoint x="955" y="720" />
              <mxPoint x="955" y="720" />
            </Array>
          </mxGeometry>
        </mxCell>
        <mxCell id="vau9nw-gVih0N3COjvcs-129" value="&lt;font style=&quot;font-size: 17px;&quot;&gt;&lt;b&gt;&lt;u&gt;&lt;font style=&quot;font-size: 17px;&quot;&gt;VMInsert&lt;/font&gt;&lt;/u&gt;&lt;/b&gt; - Stateless component&lt;br&gt;&lt;br&gt;accepts the ingested data and spreads it among storage nodes&lt;br style=&quot;&quot;&gt;&lt;br&gt;Spot nodes&lt;br&gt;&lt;br&gt;HPA&lt;/font&gt;" style="whiteSpace=wrap;html=1;fillColor=#FFFF33;rounded=1;shadow=1;glass=1;sketch=1;" vertex="1" parent="1">
          <mxGeometry x="755.25" y="526" width="399.5" height="180" as="geometry" />
        </mxCell>
        <mxCell id="vau9nw-gVih0N3COjvcs-131" value="" style="sketch=0;html=1;dashed=0;whitespace=wrap;fillColor=#2875E2;strokeColor=#ffffff;points=[[0.005,0.63,0],[0.1,0.2,0],[0.9,0.2,0],[0.5,0,0],[0.995,0.63,0],[0.72,0.99,0],[0.5,1,0],[0.28,0.99,0]];shape=mxgraph.kubernetes.icon;prIcon=hpa;rounded=1;shadow=0;glass=1;" vertex="1" parent="1">
          <mxGeometry x="760" y="640" width="80" height="64" as="geometry" />
        </mxCell>
        <mxCell id="vau9nw-gVih0N3COjvcs-132" value="" style="sketch=0;html=1;dashed=0;whitespace=wrap;fillColor=#2875E2;strokeColor=#ffffff;points=[[0.005,0.63,0],[0.1,0.2,0],[0.9,0.2,0],[0.5,0,0],[0.995,0.63,0],[0.72,0.99,0],[0.5,1,0],[0.28,0.99,0]];shape=mxgraph.kubernetes.icon;prIcon=hpa;rounded=1;shadow=0;glass=1;" vertex="1" parent="1">
          <mxGeometry x="999.5" y="640" width="80" height="64" as="geometry" />
        </mxCell>
        <mxCell id="vau9nw-gVih0N3COjvcs-133" value="" style="sketch=0;html=1;dashed=0;whitespace=wrap;fillColor=#2875E2;strokeColor=#ffffff;points=[[0.005,0.63,0],[0.1,0.2,0],[0.9,0.2,0],[0.5,0,0],[0.995,0.63,0],[0.72,0.99,0],[0.5,1,0],[0.28,0.99,0]];shape=mxgraph.kubernetes.icon;prIcon=hpa;rounded=1;shadow=0;glass=1;" vertex="1" parent="1">
          <mxGeometry x="1074.75" y="640" width="80" height="64" as="geometry" />
        </mxCell>
        <mxCell id="vau9nw-gVih0N3COjvcs-134" value="" style="sketch=0;html=1;dashed=0;whitespace=wrap;fillColor=#2875E2;strokeColor=#ffffff;points=[[0.005,0.63,0],[0.1,0.2,0],[0.9,0.2,0],[0.5,0,0],[0.995,0.63,0],[0.72,0.99,0],[0.5,1,0],[0.28,0.99,0]];shape=mxgraph.kubernetes.icon;prIcon=hpa;rounded=1;shadow=0;glass=1;" vertex="1" parent="1">
          <mxGeometry x="840" y="640" width="80" height="64" as="geometry" />
        </mxCell>
        <mxCell id="vau9nw-gVih0N3COjvcs-139" value="&lt;font style=&quot;font-size: 17px;&quot;&gt;&lt;b style=&quot;&quot;&gt;&lt;u style=&quot;&quot;&gt;VMStorage&lt;/u&gt;&lt;/b&gt;&amp;nbsp;- Stateful component&lt;br style=&quot;&quot;&gt;&lt;br style=&quot;&quot;&gt;&lt;font style=&quot;font-size: 17px;&quot;&gt;stores the raw data and returns the queried data on the given time range for the given label filters.&lt;/font&gt;&lt;br style=&quot;&quot;&gt;&lt;br&gt;On-demand nodes&lt;br style=&quot;&quot;&gt;&lt;br style=&quot;&quot;&gt;VPA&lt;/font&gt;" style="whiteSpace=wrap;html=1;fillColor=#FFFF33;rounded=1;shadow=1;glass=1;sketch=1;" vertex="1" parent="1">
          <mxGeometry x="760" y="780" width="399.5" height="195" as="geometry" />
        </mxCell>
        <mxCell id="vau9nw-gVih0N3COjvcs-140" value="" style="sketch=0;points=[[0,0,0],[0.25,0,0],[0.5,0,0],[0.75,0,0],[1,0,0],[0,1,0],[0.25,1,0],[0.5,1,0],[0.75,1,0],[1,1,0],[0,0.25,0],[0,0.5,0],[0,0.75,0],[1,0.25,0],[1,0.5,0],[1,0.75,0]];points=[[0,0,0],[0.25,0,0],[0.5,0,0],[0.75,0,0],[1,0,0],[0,1,0],[0.25,1,0],[0.5,1,0],[0.75,1,0],[1,1,0],[0,0.25,0],[0,0.5,0],[0,0.75,0],[1,0.25,0],[1,0.5,0],[1,0.75,0]];outlineConnect=0;fontColor=#232F3E;gradientColor=#F34482;gradientDirection=north;fillColor=#BC1356;strokeColor=#ffffff;dashed=0;verticalLabelPosition=bottom;verticalAlign=top;align=center;html=1;fontSize=12;fontStyle=0;aspect=fixed;shape=mxgraph.aws4.resourceIcon;resIcon=mxgraph.aws4.autoscaling;rounded=1;shadow=0;glass=1;" vertex="1" parent="1">
          <mxGeometry x="791.3299999999999" y="890" width="78.67" height="78.67" as="geometry" />
        </mxCell>
        <mxCell id="vau9nw-gVih0N3COjvcs-141" value="" style="sketch=0;points=[[0,0,0],[0.25,0,0],[0.5,0,0],[0.75,0,0],[1,0,0],[0,1,0],[0.25,1,0],[0.5,1,0],[0.75,1,0],[1,1,0],[0,0.25,0],[0,0.5,0],[0,0.75,0],[1,0.25,0],[1,0.5,0],[1,0.75,0]];points=[[0,0,0],[0.25,0,0],[0.5,0,0],[0.75,0,0],[1,0,0],[0,1,0],[0.25,1,0],[0.5,1,0],[0.75,1,0],[1,1,0],[0,0.25,0],[0,0.5,0],[0,0.75,0],[1,0.25,0],[1,0.5,0],[1,0.75,0]];outlineConnect=0;fontColor=#232F3E;gradientColor=#F34482;gradientDirection=north;fillColor=#BC1356;strokeColor=#ffffff;dashed=0;verticalLabelPosition=bottom;verticalAlign=top;align=center;html=1;fontSize=12;fontStyle=0;aspect=fixed;shape=mxgraph.aws4.resourceIcon;resIcon=mxgraph.aws4.autoscaling;rounded=1;shadow=0;glass=1;" vertex="1" parent="1">
          <mxGeometry x="1055.3399999999997" y="890" width="78.67" height="78.67" as="geometry" />
        </mxCell>
        <mxCell id="vau9nw-gVih0N3COjvcs-151" style="edgeStyle=orthogonalEdgeStyle;rounded=0;orthogonalLoop=1;jettySize=auto;html=1;entryX=0.5;entryY=1;entryDx=0;entryDy=0;strokeWidth=4;" edge="1" parent="1" source="vau9nw-gVih0N3COjvcs-144" target="vau9nw-gVih0N3COjvcs-139">
          <mxGeometry relative="1" as="geometry" />
        </mxCell>
        <mxCell id="vau9nw-gVih0N3COjvcs-144" value="&lt;font style=&quot;font-size: 17px;&quot;&gt;&lt;b style=&quot;&quot;&gt;&lt;u style=&quot;&quot;&gt;VMSelect&lt;/u&gt;&lt;/b&gt;&amp;nbsp;- Stateless component&lt;br style=&quot;&quot;&gt;&lt;br style=&quot;&quot;&gt;&amp;nbsp;performs incoming queries by fetching the needed data from all the configured storage nodes&lt;br style=&quot;&quot;&gt;&lt;br&gt;Spot nodes&lt;br style=&quot;&quot;&gt;&lt;br style=&quot;&quot;&gt;HPA&lt;/font&gt;" style="whiteSpace=wrap;html=1;fillColor=#FFFF33;rounded=1;shadow=1;glass=1;sketch=1;" vertex="1" parent="1">
          <mxGeometry x="760" y="1050" width="399.5" height="200" as="geometry" />
        </mxCell>
        <mxCell id="vau9nw-gVih0N3COjvcs-145" value="" style="sketch=0;html=1;dashed=0;whitespace=wrap;fillColor=#2875E2;strokeColor=#ffffff;points=[[0.005,0.63,0],[0.1,0.2,0],[0.9,0.2,0],[0.5,0,0],[0.995,0.63,0],[0.72,0.99,0],[0.5,1,0],[0.28,0.99,0]];shape=mxgraph.kubernetes.icon;prIcon=hpa;rounded=1;shadow=0;glass=1;" vertex="1" parent="1">
          <mxGeometry x="999.5" y="1180" width="80" height="64" as="geometry" />
        </mxCell>
        <mxCell id="vau9nw-gVih0N3COjvcs-146" value="" style="sketch=0;html=1;dashed=0;whitespace=wrap;fillColor=#2875E2;strokeColor=#ffffff;points=[[0.005,0.63,0],[0.1,0.2,0],[0.9,0.2,0],[0.5,0,0],[0.995,0.63,0],[0.72,0.99,0],[0.5,1,0],[0.28,0.99,0]];shape=mxgraph.kubernetes.icon;prIcon=hpa;rounded=1;shadow=0;glass=1;" vertex="1" parent="1">
          <mxGeometry x="1079.5" y="1180" width="80" height="64" as="geometry" />
        </mxCell>
        <mxCell id="vau9nw-gVih0N3COjvcs-147" value="" style="sketch=0;html=1;dashed=0;whitespace=wrap;fillColor=#2875E2;strokeColor=#ffffff;points=[[0.005,0.63,0],[0.1,0.2,0],[0.9,0.2,0],[0.5,0,0],[0.995,0.63,0],[0.72,0.99,0],[0.5,1,0],[0.28,0.99,0]];shape=mxgraph.kubernetes.icon;prIcon=hpa;rounded=1;shadow=0;glass=1;" vertex="1" parent="1">
          <mxGeometry x="850" y="1180" width="80" height="64" as="geometry" />
        </mxCell>
        <mxCell id="vau9nw-gVih0N3COjvcs-148" value="" style="sketch=0;html=1;dashed=0;whitespace=wrap;fillColor=#2875E2;strokeColor=#ffffff;points=[[0.005,0.63,0],[0.1,0.2,0],[0.9,0.2,0],[0.5,0,0],[0.995,0.63,0],[0.72,0.99,0],[0.5,1,0],[0.28,0.99,0]];shape=mxgraph.kubernetes.icon;prIcon=hpa;rounded=1;shadow=0;glass=1;" vertex="1" parent="1">
          <mxGeometry x="770" y="1180" width="80" height="64" as="geometry" />
        </mxCell>
      </root>
    </mxGraphModel>
  </diagram>
</mxfile>
